<svg width="485" height="223" viewBox="0 0 485 223" fill="none" xmlns="http://www.w3.org/2000/svg">
    <path d="M459.831 215.741C462.43 215.741 464.475 214.951 465.966 213.369C467.458 211.788 468.206 209.793 468.211 207.383V189.522H475.526L425.313 124.677C424.884 125.786 424.671 126.967 424.684 128.156V146.006H392.61L412.166 107.699L381.925 68.6501L347.13 137.36C343.967 143.496 342.387 149.168 342.39 154.376V175.518L378.348 189.522H424.673V207.372C424.673 207.436 424.673 207.496 424.673 207.563L445.677 215.741H459.831Z" fill="#DEDEDE"/>
    <path d="M350.771 196.522H378.36L342.401 182.518V188.153C342.401 193.73 345.191 196.519 350.771 196.522Z" fill="#DEDEDE"/>
    <path d="M433.054 222.741H445.696L424.692 214.563C424.73 216.894 425.467 218.835 426.918 220.369C428.37 221.903 430.447 222.741 433.054 222.741Z" fill="#DEDEDE"/>
    <path d="M412.166 90.5407L453.415 9.76119C454.342 7.90548 454.808 6.41767 454.81 5.29776C454.81 1.76592 452.02 0 446.441 0H415.481C412.872 0 410.779 0.419031 409.203 1.25709C407.624 2.09142 406.584 2.88458 406.135 3.62537C405.686 4.36616 404.882 5.95249 403.767 8.36941L381.925 51.5072L412.166 90.5407Z" fill="#DEDEDE"/>
    <path d="M476.274 128.867H468.182V111.013C468.182 108.599 467.433 106.604 465.937 105.027C464.44 103.451 462.395 102.661 459.801 102.659H433.024C430.418 102.659 428.372 103.448 426.888 105.027C426.198 105.757 425.653 106.611 425.283 107.545L475.526 172.379H476.274C481.854 172.379 484.642 169.589 484.64 164.01V137.233C484.65 131.653 481.861 128.865 476.274 128.867Z" fill="#DEDEDE"/>
    <path d="M311.684 42.412C309.354 38.9151 306.654 35.68 303.629 32.7631C291.729 21.2322 276.389 15.4668 257.61 15.4668C238.831 15.4668 223.492 21.2322 211.592 32.7631C199.682 44.2939 193.728 59.1695 193.73 77.3899V118.025L239.476 136.526V77.3899C239.476 71.072 241.097 66.0511 244.34 62.3272C247.582 58.6033 252 56.7439 257.592 56.7489C262.984 56.7489 267.349 58.6083 270.686 62.3272C274.024 66.0461 275.707 71.067 275.737 77.3899V124.718L311.684 42.412Z" fill="#DEDEDE"/>
    <path d="M334.555 151.749V73.6483C334.555 60.1545 331.29 48.4952 324.76 38.6704L288.832 120.976V147.08L333.668 163.542C334.276 159.641 334.573 155.697 334.555 151.749Z" fill="#DEDEDE"/>
    <path d="M240.592 176.165C237.081 175.547 233.88 173.765 231.504 171.107C228.261 167.48 226.64 162.506 226.64 156.183V136.933L180.876 118.44V155.906C180.876 174.131 186.827 189.007 198.73 200.533C205.707 207.338 214.263 212.307 223.632 214.993L240.592 176.165Z" fill="#DEDEDE"/>
    <path d="M275.738 150.822V155.771C275.738 162.094 274.117 167.068 270.874 170.692C267.632 174.316 263.216 176.129 257.626 176.132C256.23 176.141 254.837 176.016 253.466 175.758L236.487 214.582C243.357 216.522 250.469 217.476 257.607 217.414C276.386 217.414 291.726 211.65 303.626 200.121C312.855 191.184 318.503 180.236 320.57 167.276L275.738 150.822Z" fill="#DEDEDE"/>
    <path d="M133.888 139.717H125.796V121.863C125.796 119.449 125.047 117.454 123.551 115.877C122.054 114.301 120.009 113.511 117.415 113.509H90.653C88.0465 113.509 86.0012 114.298 84.5172 115.877C83.0331 117.456 82.2848 119.451 82.2723 121.863V139.717H50.209L80.7459 79.8966L38.9101 63.603L4.74029 131.067C1.5801 137.208 0 142.88 0 148.083V174.86C0 180.437 2.7898 183.227 8.36941 183.229H82.2836V201.079C82.2836 203.498 83.0318 205.494 84.5284 207.065C86.0249 208.637 88.0702 209.427 90.6642 209.437H117.441C120.04 209.437 122.085 208.647 123.577 207.065C125.068 205.484 125.817 203.488 125.822 201.079V183.229H133.914C139.491 183.229 142.28 180.439 142.28 174.86V148.083C142.262 142.503 139.465 139.715 133.888 139.717Z" fill="#DEDEDE"/>
    <path d="M112.989 86.1896L143.256 26.9041C144.173 25.0671 144.641 23.5706 144.641 22.4481C144.641 18.9188 141.851 17.1529 136.271 17.1504H105.312C102.703 17.1504 100.61 17.5682 99.0337 18.4037C97.4573 19.2393 96.4347 20.03 95.9658 20.7758C95.5019 21.524 94.7124 23.1041 93.5975 25.5161L71.127 69.8922L112.989 86.1896Z" fill="#DEDEDE"/>
    <path d="M36.3583 205.576V208.629H27.2705V195.878H36.1974V198.931H30.7724V200.727H35.4042V203.567H30.7724V205.576H36.3583Z" fill="#DEDEDE"/>
    <path d="M44.1705 202.093C43.5649 202.086 42.9611 202.159 42.3746 202.31C41.9046 202.409 41.4809 202.662 41.1699 203.028V208.64H37.7578V199.186H40.8818V200.982C41.1734 200.399 41.6022 199.896 42.1315 199.515C42.6024 199.184 43.1643 199.006 43.7402 199.006C43.8835 198.997 44.0272 198.997 44.1705 199.006V202.093Z" fill="#DEDEDE"/>
    <path d="M51.6306 202.093C51.0251 202.086 50.4212 202.159 49.8348 202.31C49.3662 202.41 48.944 202.663 48.6338 203.028V208.64H45.2217V199.186H48.3457V200.982C48.6373 200.399 49.0661 199.895 49.5953 199.515C50.0649 199.184 50.6256 199.006 51.2004 199.006C51.3436 198.997 51.4873 198.997 51.6306 199.006V202.093Z" fill="#DEDEDE"/>
    <path d="M57.3508 208.809C56.583 208.825 55.8197 208.688 55.106 208.404C54.5005 208.159 53.9509 207.794 53.4897 207.331C53.0555 206.884 52.7191 206.351 52.502 205.767C52.0579 204.567 52.0579 203.248 52.502 202.048C52.718 201.464 53.0545 200.933 53.4897 200.488C53.9505 200.024 54.5002 199.657 55.106 199.41C56.5449 198.871 58.1304 198.871 59.5694 199.41C60.1789 199.654 60.7317 200.021 61.1931 200.488C61.6283 200.933 61.9649 201.464 62.1809 202.048C62.6249 203.248 62.6249 204.567 62.1809 205.767C61.9637 206.351 61.6274 206.884 61.1931 207.331C60.7314 207.796 60.1787 208.162 59.5694 208.404C58.8638 208.684 58.1097 208.822 57.3508 208.809ZM55.6784 203.904C55.6466 204.443 55.8129 204.975 56.1461 205.4C56.2979 205.569 56.4835 205.703 56.6907 205.795C56.8979 205.887 57.1221 205.935 57.3489 205.935C57.5757 205.935 57.7999 205.887 58.0071 205.795C58.2143 205.703 58.3998 205.569 58.5517 205.4C58.8575 204.961 59.0214 204.439 59.0214 203.904C59.0214 203.368 58.8575 202.846 58.5517 202.407C58.4005 202.238 58.2151 202.102 58.0079 202.009C57.8006 201.916 57.576 201.869 57.3489 201.869C57.1218 201.869 56.8972 201.916 56.6899 202.009C56.4827 202.102 56.2973 202.238 56.1461 202.407C55.812 202.832 55.6455 203.364 55.6784 203.904Z" fill="#DEDEDE"/>
    <path d="M70.1355 202.093C69.5299 202.086 68.9261 202.159 68.3397 202.31C67.8707 202.409 67.4481 202.662 67.1387 203.028V208.64H63.7266V199.186H66.8506V200.982C67.1409 200.398 67.57 199.894 68.1002 199.515C68.5698 199.184 69.1305 199.006 69.7052 199.006C69.8485 198.997 69.9922 198.997 70.1355 199.006V202.093Z" fill="#DEDEDE"/>
</svg>
