<svg width="235" height="51" viewBox="0 0 235 51" fill="none" xmlns="http://www.w3.org/2000/svg">
    <path d="M72.3294 27.1338C72.3515 28.1863 72.0586 29.2216 71.4881 30.1075C70.8863 30.9931 70.0411 31.687 69.0537 32.1059C67.8735 32.6047 66.6004 32.848 65.3187 32.8195C64.3184 32.835 63.3191 32.7513 62.3354 32.5697C61.4618 32.3809 60.6143 32.0873 59.8115 31.6955V27.3777C60.7265 27.8505 61.691 28.2214 62.6874 28.4839C63.5814 28.7332 64.5038 28.8671 65.432 28.8824C65.9835 28.9252 66.5346 28.7941 67.0072 28.5077C67.1635 28.4017 67.2911 28.2588 67.3786 28.0917C67.466 27.9246 67.5106 27.7386 67.5084 27.5501C67.5136 27.3196 67.4423 27.0938 67.3055 26.9078C67.1257 26.6865 66.9074 26.4991 66.6611 26.3547C66.3628 26.1703 65.5693 25.76 64.2745 25.2069C63.334 24.8157 62.4509 24.2995 61.6492 23.6724C61.0907 23.2112 60.6475 22.6268 60.3545 21.9655C60.0544 21.2422 59.9101 20.4641 59.9309 19.6817C59.8963 18.9449 60.041 18.2107 60.3527 17.5417C60.6644 16.8727 61.1338 16.2887 61.7208 15.8397C62.9141 14.9238 64.5629 14.4658 66.6671 14.4658C68.6241 14.4872 70.5542 14.9231 72.3294 15.7445L70.8497 19.4616C69.5005 18.7899 68.0246 18.409 66.5179 18.3435C66.0373 18.3043 65.5565 18.4189 65.1456 18.6706C65.0152 18.7632 64.9088 18.8853 64.8351 19.027C64.7614 19.1687 64.7227 19.3259 64.722 19.4854C64.7313 19.6738 64.7854 19.8572 64.8798 20.0205C64.9742 20.1839 65.1062 20.3226 65.265 20.4251C66.2159 21.0115 67.2137 21.5187 68.2483 21.9417C69.4848 22.4132 70.5883 23.1765 71.4642 24.1661C72.0702 25.0345 72.374 26.0769 72.3294 27.1338Z" fill="white"/>
    <path d="M75.0977 32.5522V14.71H79.9306V28.6626H86.816V32.5522H75.0977Z" fill="white"/>
    <path d="M106.422 23.6127C106.422 26.6102 105.684 28.89 104.208 30.4522C102.733 32.0144 100.571 32.7955 97.7227 32.7955C94.9144 32.7955 92.7625 32.0025 91.2669 30.4165C89.7712 28.8306 89.0234 26.5467 89.0234 23.5651C89.0234 20.5954 89.7673 18.3274 91.2549 16.7613C92.7426 15.1951 94.9065 14.414 97.7466 14.418C100.591 14.418 102.749 15.1931 104.22 16.7434C105.692 18.2937 106.426 20.5835 106.422 23.6127ZM94.1129 23.6127C94.1129 27.0582 95.3162 28.781 97.7227 28.781C98.2457 28.8185 98.7697 28.7231 99.2456 28.5036C99.7215 28.2841 100.134 27.9478 100.443 27.5261C101.036 26.6895 101.332 25.385 101.332 23.6127C101.332 21.8285 101.028 20.5141 100.432 19.6636C100.129 19.2423 99.7233 18.9046 99.2538 18.682C98.7842 18.4594 98.2656 18.3592 97.7466 18.3909C95.3241 18.3909 94.1129 20.1315 94.1129 23.6127Z" fill="white"/>
    <path d="M117.543 32.552H112.71V18.6589H108.343V14.7217H121.899V18.6589H117.543V32.552Z" fill="white"/>
    <path d="M141.213 23.6127C141.213 26.6102 140.475 28.89 138.999 30.4522C137.524 32.0144 135.356 32.7955 132.496 32.7955C129.711 32.7955 127.559 32.0025 126.04 30.4165C124.52 28.8306 123.773 26.5467 123.796 23.5651C123.796 20.5954 124.54 18.3274 126.028 16.7613C127.516 15.1951 129.679 14.414 132.52 14.418C135.364 14.418 137.522 15.1931 138.993 16.7434C140.465 18.2937 141.205 20.5835 141.213 23.6127ZM128.904 23.6127C128.904 27.0582 130.097 28.781 132.484 28.781C133.014 28.8258 133.546 28.7339 134.03 28.5141C134.514 28.2943 134.933 27.9541 135.246 27.5261C135.839 26.6895 136.135 25.385 136.135 23.6127C136.135 21.8404 135.835 20.524 135.234 19.6636C134.933 19.2411 134.528 18.9024 134.058 18.6797C133.588 18.4569 133.069 18.3575 132.549 18.3909C130.107 18.3909 128.886 20.1315 128.886 23.6127H128.904Z" fill="white"/>
    <path d="M154.471 14.7217H159.883L154.018 32.5639H148.332L142.49 14.7217H147.926L150.36 23.7558C150.745 25.1323 151.024 26.536 151.195 27.9547C151.272 27.2376 151.385 26.525 151.536 25.8196C151.709 24.9631 151.858 24.297 151.989 23.8093L154.471 14.7217Z" fill="white"/>
    <path d="M161.815 32.5522V14.71H166.672V32.5522H161.815Z" fill="white"/>
    <path d="M169.656 30.5296C169.636 30.2093 169.685 29.8884 169.8 29.5887C169.915 29.2891 170.094 29.0177 170.324 28.793C170.872 28.3583 171.565 28.1459 172.263 28.1982C172.937 28.1508 173.604 28.3638 174.125 28.793C174.348 29.0218 174.52 29.2944 174.631 29.5935C174.742 29.8925 174.789 30.2114 174.769 30.5296C174.787 30.8456 174.738 31.1619 174.623 31.4573C174.509 31.7527 174.333 32.0204 174.107 32.2425C173.591 32.6683 172.931 32.8812 172.263 32.8372C171.575 32.8791 170.896 32.6674 170.354 32.2425C170.118 32.0258 169.933 31.7599 169.813 31.4638C169.692 31.1677 169.638 30.8487 169.656 30.5296Z" fill="white"/>
    <path d="M185.747 18.4156C185.215 18.3983 184.687 18.5191 184.215 18.7662C183.743 19.0133 183.344 19.3781 183.056 19.8251C182.354 20.9906 182.017 22.339 182.09 23.6969C182.09 27.1265 183.398 28.8434 186.016 28.8473C186.796 28.848 187.571 28.7358 188.319 28.5143C189.078 28.2885 189.824 28.0245 190.556 27.7233V31.7972C188.956 32.4781 187.23 32.8145 185.491 32.7845C182.79 32.7845 180.719 32.0034 179.279 30.4412C177.839 28.879 177.12 26.6309 177.12 23.6969C177.084 22.0158 177.444 20.3498 178.17 18.8319C178.817 17.4819 179.856 16.3568 181.153 15.6024C182.565 14.8265 184.159 14.4385 185.771 14.4784C187.695 14.4675 189.597 14.8926 191.332 15.7214L189.858 19.5337C189.215 19.2312 188.553 18.969 187.877 18.7486C187.189 18.5293 186.47 18.417 185.747 18.4156Z" fill="white"/>
    <path d="M210.784 23.6127C210.784 26.6102 210.046 28.89 208.57 30.4522C207.094 32.0144 204.928 32.7955 202.072 32.7955C199.264 32.7955 197.112 32.0025 195.616 30.4165C194.121 28.8306 193.373 26.5467 193.373 23.5651C193.373 20.5954 194.117 18.3274 195.605 16.7613C197.092 15.1951 199.256 14.414 202.096 14.418C204.94 14.418 207.098 15.1931 208.57 16.7434C210.042 18.2937 210.78 20.5835 210.784 23.6127ZM198.474 23.6127C198.474 27.0582 199.668 28.781 202.054 28.781C202.577 28.8185 203.101 28.7231 203.577 28.5036C204.053 28.2841 204.465 27.9478 204.775 27.5261C205.368 26.6895 205.664 25.385 205.664 23.6127C205.664 21.8404 205.364 20.524 204.763 19.6636C204.461 19.2419 204.056 18.9039 203.586 18.6812C203.116 18.4586 202.597 18.3587 202.078 18.3909C199.688 18.3909 198.492 20.1315 198.492 23.6127H198.474Z" fill="white"/>
    <path d="M221.809 32.5524L218.146 19.706H218.038C218.213 21.8946 218.299 23.5956 218.295 24.8088V32.5405H214.005V14.6982H220.449L224.178 27.3543H224.279L227.937 14.6982H234.387V32.5405H229.942V24.7315C229.942 24.3271 229.942 23.8751 229.942 23.3815C229.942 22.8878 230.007 21.6686 230.103 19.7357H229.995L226.415 32.5524H221.809Z" fill="white"/>
    <path d="M47.3169 45.2017C49.6737 42.906 51.1176 39.6943 51.1176 35.3171C51.1176 27.3178 44.6498 24.3381 38.2358 22.542C31.8217 20.7459 25.3599 20.1274 25.3599 16.7076C25.3599 13.7934 28.4744 12.925 30.9625 12.925C34.5424 12.925 38.3074 14.2275 38.1224 18.2777H49.6975C49.6379 8.29199 40.7477 4.00391 31.8993 4.00391C24.0413 4.00391 14.9065 7.37015 13.8862 15.8631C13.246 13.5766 13.458 11.1365 14.4828 8.99379C17.2871 3.53406 25.867 1.85689 36.5591 3.77791L35.5508 3.43296C32.967 2.91724 30.3446 2.61685 27.7107 2.5349C22.5616 2.40405 18.4088 3.30806 15.5508 5.13392C14.1118 6.01786 12.9372 7.2708 12.1499 8.76184C9.98403 12.9905 11.41 18.7357 16.1654 24.9923C20.5926 30.8327 27.4005 36.3935 35.5031 40.86C36.2489 41.2764 37.0126 41.6808 37.7823 42.0495C40.6214 43.5018 43.5465 44.7809 46.5412 45.8797C48.6653 46.6588 50.7775 47.3189 52.8539 47.8542C55.9103 48.6651 59.0333 49.2025 62.1856 49.46C57.0835 48.6067 52.0952 47.178 47.3169 45.2017ZM21.6666 28.4537C23.3299 29.1701 25.0428 29.7664 26.7919 30.238C33.2179 32.0222 39.5484 32.7775 39.5484 36.685C39.5461 37.4476 39.3185 38.1927 38.8941 38.8273C38.4696 39.4619 37.8671 39.9579 37.1618 40.2534C31.4663 37.0652 26.2499 33.093 21.6666 28.4537Z" fill="white"/>
    <path d="M45.5325 46.6659C42.7185 45.6079 39.9674 44.3906 37.2926 43.0201C36.0993 42.4254 34.9597 41.7949 33.832 41.1467C30.4039 39.1908 27.1378 36.9653 24.0648 34.4915L23.8679 34.325C20.6881 31.7704 17.8186 28.8542 15.3178 25.6358C10.3058 19.0342 8.84403 12.8727 11.2068 8.27531C12.2973 6.23944 14.0114 4.60378 16.0994 3.60659C19.0528 2.09594 23.0027 1.35252 27.7461 1.47146H28.3428C24.2766 0.608642 20.1083 0.324307 15.9622 0.626931C9.44069 1.19194 4.43474 3.64227 2.1913 7.96604C-1.47814 15.1386 3.50395 25.4812 13.8142 34.325C17.9678 37.8436 22.5217 40.8638 27.3822 43.3234L28.3368 43.7992C25.601 42.8469 22.9286 41.7226 20.3356 40.433C17.6445 39.062 15.0419 37.5245 12.5433 35.8297C13.3727 46.0652 22.0302 50.1035 31.7736 50.1035C35.0121 50.1502 38.2366 49.6701 41.3201 48.682C46.2653 50.0942 51.408 50.6948 56.5468 50.4603C57.3463 50.4068 58.1279 50.3295 58.8797 50.2165C54.3154 49.5152 49.8404 48.3247 45.5325 46.6659Z" fill="#FFCE50"/>
</svg>
